# xmcd
#
# Track frame offsets: 
#        150
#        20559
#        51826
#        61117
#        87796
#        102366
#        124799
#        137843
#        162047
#        176881
#        189751
#        214812
#        235259
#        247676
#
# Disc length: 3413 seconds
#
# Revision: 1
# Processed by: cddbd v1.5.2PL0 Copyright (c) Steve Scherf et al.
# Submitted via: ExactAudioCopy v0.99pb5
#
DISCID=b40d530e
DTITLE=Charlie Mariano and Vitold Rek - Cathedral
DYEAR=2006
DGENRE=Jazz
TTITLE0=Elixir
TTITLE1=Song of Love
TTITLE2=Voices - Fantasia con fuoco
TTITLE3=Deam and Walk - Insomnia
TTITLE4=Ain't Misbehavin'
TTITLE5=In Temptation - Passacaglia
TTITLE6=Earth Beat - Fantasia animato
TTITLE7=Sundown
TTITLE8=Memories of you
TTITLE9=Silver Wing - Fantasia giocoso
TTITLE10=Ballade
TTITLE11=Our Hopes We Place
TTITLE12=Saints Alone - Fantasia con dolore
TTITLE13=Endless Light - Fantasia appasionato
EXTD=YEAR: 2006
EXTT0=
EXTT1=
EXTT2=
EXTT3=
EXTT4=
EXTT5=
EXTT6=
EXTT7=
EXTT8=
EXTT9=
EXTT10=
EXTT11=
EXTT12=
EXTT13=
PLAYORDER=
